<svg width="11" height="11" viewBox="0 0 11 11" fill="none" xmlns="http://www.w3.org/2000/svg">
<circle cx="5.5" cy="5.5" r="5.5" fill="#D9D9D9"/>
<path d="M5.26207 8.08452C4.86932 8.08286 4.53374 7.97929 4.25533 7.77379C3.97692 7.5683 3.76397 7.26918 3.61648 6.87642C3.46899 6.48366 3.39524 6.01054 3.39524 5.45703C3.39524 4.90518 3.46899 4.43371 3.61648 4.04261C3.76563 3.65151 3.9794 3.35322 4.25781 3.14773C4.53788 2.94223 4.87263 2.83949 5.26207 2.83949C5.65152 2.83949 5.98544 2.94306 6.26385 3.15021C6.54226 3.35571 6.75521 3.654 6.9027 4.0451C7.05185 4.43454 7.12642 4.90518 7.12642 5.45703C7.12642 6.01219 7.05268 6.48615 6.90518 6.87891C6.75769 7.27 6.54474 7.56913 6.26634 7.77628C5.98793 7.98177 5.65317 8.08452 5.26207 8.08452ZM5.26207 7.42081C5.60677 7.42081 5.87607 7.2526 6.06996 6.91619C6.26551 6.57978 6.36328 6.09339 6.36328 5.45703C6.36328 5.03445 6.31854 4.67732 6.22905 4.38565C6.14122 4.09233 6.01444 3.87026 5.84872 3.71946C5.68466 3.567 5.48911 3.49077 5.26207 3.49077C4.91903 3.49077 4.64974 3.6598 4.45419 3.99787C4.25864 4.33594 4.16004 4.82232 4.15838 5.45703C4.15838 5.88127 4.2023 6.24006 4.29013 6.53338C4.37962 6.82505 4.50639 7.04628 4.67045 7.19709C4.83452 7.34624 5.03172 7.42081 5.26207 7.42081Z" fill="black" fill-opacity="0.47"/>
</svg>
