<svg width="50" height="50" viewBox="0 0 50 50" fill="none" xmlns="http://www.w3.org/2000/svg">
<circle cx="25" cy="25" r="25" fill="#D9D9D9"/>
<path d="M11.8807 29V21.7273H12.7614V28.2188H16.142V29H11.8807ZM23.3588 25.3636C23.3588 26.1307 23.2203 26.7936 22.9434 27.3523C22.6664 27.911 22.2864 28.3419 21.8034 28.6449C21.3205 28.9479 20.7689 29.0994 20.1486 29.0994C19.5284 29.0994 18.9767 28.9479 18.4938 28.6449C18.0108 28.3419 17.6309 27.911 17.3539 27.3523C17.0769 26.7936 16.9384 26.1307 16.9384 25.3636C16.9384 24.5966 17.0769 23.9337 17.3539 23.375C17.6309 22.8163 18.0108 22.3854 18.4938 22.0824C18.9767 21.7794 19.5284 21.6278 20.1486 21.6278C20.7689 21.6278 21.3205 21.7794 21.8034 22.0824C22.2864 22.3854 22.6664 22.8163 22.9434 23.375C23.2203 23.9337 23.3588 24.5966 23.3588 25.3636ZM22.5066 25.3636C22.5066 24.7339 22.4012 24.2024 22.1905 23.7692C21.9822 23.3359 21.6993 23.008 21.3418 22.7855C20.9867 22.563 20.589 22.4517 20.1486 22.4517C19.7083 22.4517 19.3094 22.563 18.9519 22.7855C18.5968 23.008 18.3139 23.3359 18.1032 23.7692C17.8948 24.2024 17.7907 24.7339 17.7907 25.3636C17.7907 25.9934 17.8948 26.5249 18.1032 26.9581C18.3139 27.3913 18.5968 27.7192 18.9519 27.9418C19.3094 28.1643 19.7083 28.2756 20.1486 28.2756C20.589 28.2756 20.9867 28.1643 21.3418 27.9418C21.6993 27.7192 21.9822 27.3913 22.1905 26.9581C22.4012 26.5249 22.5066 25.9934 22.5066 25.3636ZM29.8113 24C29.7331 23.7609 29.6301 23.5466 29.5023 23.3572C29.3768 23.1655 29.2265 23.0021 29.0513 22.8672C28.8785 22.7322 28.682 22.6293 28.4618 22.5582C28.2417 22.4872 28.0002 22.4517 27.7374 22.4517C27.3065 22.4517 26.9147 22.563 26.562 22.7855C26.2092 23.008 25.9287 23.3359 25.7203 23.7692C25.512 24.2024 25.4078 24.7339 25.4078 25.3636C25.4078 25.9934 25.5132 26.5249 25.7239 26.9581C25.9346 27.3913 26.2199 27.7192 26.5797 27.9418C26.9396 28.1643 27.3444 28.2756 27.7942 28.2756C28.2109 28.2756 28.5778 28.1868 28.8951 28.0092C29.2147 27.8293 29.4632 27.576 29.6408 27.2493C29.8207 26.9202 29.9107 26.5331 29.9107 26.0881L30.1806 26.1449H27.9931V25.3636H30.763V26.1449C30.763 26.7438 30.6351 27.2647 30.3794 27.7074C30.1261 28.1501 29.7757 28.4934 29.3283 28.7372C28.8832 28.9787 28.3719 29.0994 27.7942 29.0994C27.1503 29.0994 26.5845 28.9479 26.0968 28.6449C25.6114 28.3419 25.2327 27.911 24.9604 27.3523C24.6905 26.7936 24.5556 26.1307 24.5556 25.3636C24.5556 24.7884 24.6325 24.2711 24.7864 23.8118C24.9426 23.3501 25.1628 22.9571 25.4469 22.6328C25.731 22.3085 26.0672 22.0599 26.4554 21.8871C26.8437 21.7143 27.271 21.6278 27.7374 21.6278C28.1209 21.6278 28.4784 21.6858 28.8098 21.8018C29.1436 21.9155 29.4408 22.0777 29.7012 22.2884C29.964 22.4967 30.1829 22.7464 30.3581 23.0376C30.5333 23.3265 30.6541 23.6473 30.7203 24H29.8113ZM38.4077 25.3636C38.4077 26.1307 38.2692 26.7936 37.9922 27.3523C37.7152 27.911 37.3352 28.3419 36.8523 28.6449C36.3693 28.9479 35.8177 29.0994 35.1974 29.0994C34.5772 29.0994 34.0256 28.9479 33.5426 28.6449C33.0597 28.3419 32.6797 27.911 32.4027 27.3523C32.1257 26.7936 31.9872 26.1307 31.9872 25.3636C31.9872 24.5966 32.1257 23.9337 32.4027 23.375C32.6797 22.8163 33.0597 22.3854 33.5426 22.0824C34.0256 21.7794 34.5772 21.6278 35.1974 21.6278C35.8177 21.6278 36.3693 21.7794 36.8523 22.0824C37.3352 22.3854 37.7152 22.8163 37.9922 23.375C38.2692 23.9337 38.4077 24.5966 38.4077 25.3636ZM37.5554 25.3636C37.5554 24.7339 37.45 24.2024 37.2393 23.7692C37.031 23.3359 36.7481 23.008 36.3906 22.7855C36.0355 22.563 35.6378 22.4517 35.1974 22.4517C34.7571 22.4517 34.3582 22.563 34.0007 22.7855C33.6456 23.008 33.3627 23.3359 33.152 23.7692C32.9437 24.2024 32.8395 24.7339 32.8395 25.3636C32.8395 25.9934 32.9437 26.5249 33.152 26.9581C33.3627 27.3913 33.6456 27.7192 34.0007 27.9418C34.3582 28.1643 34.7571 28.2756 35.1974 28.2756C35.6378 28.2756 36.0355 28.1643 36.3906 27.9418C36.7481 27.7192 37.031 27.3913 37.2393 26.9581C37.45 26.5249 37.5554 25.9934 37.5554 25.3636Z" fill="black"/>
</svg>
